<?xml version="1.0" standalone="no"?>
<!DOCTYPE svg PUBLIC "-//W3C//DTD SVG 20010904//EN"
 "http://www.w3.org/TR/2001/REC-SVG-20010904/DTD/svg10.dtd">
<svg version="1.0" xmlns="http://www.w3.org/2000/svg"
 width="500.000000pt" height="500.000000pt" viewBox="0 0 500.000000 500.000000"
 preserveAspectRatio="xMidYMid meet">

<g transform="translate(0.000000,500.000000) scale(0.100000,-0.100000)"
fill="#000000" stroke="none">
<path d="M2287 4045 c-327 -47 -625 -189 -855 -410 -240 -229 -394 -504 -464
-829 -32 -148 -32 -455 1 -606 69 -321 206 -577 430 -800 224 -224 485 -364
801 -431 155 -33 439 -33 595 0 489 103 882 402 1099 836 220 439 218 949 -3
1392 -81 161 -165 277 -297 409 -224 225 -508 373 -824 430 -120 22 -363 27
-483 9z m528 -55 c271 -58 527 -195 729 -390 121 -117 181 -192 262 -327 259
-431 282 -981 59 -1438 -144 -297 -422 -572 -710 -706 -121 -56 -270 -104
-385 -125 -131 -24 -411 -25 -537 -1 -405 75 -776 317 -997 652 -108 163 -184
344 -228 541 -18 84 -22 131 -22 304 0 175 3 219 22 304 139 623 612 1084
1229 1196 147 27 429 22 578 -10z"/>
<path d="M2375 3788 c4 -35 8 -64 10 -66 10 -12 72 18 85 41 13 24 13 30 0 55
-13 22 -24 28 -59 30 l-43 3 7 -63z m69 20 c8 -13 8 -23 0 -35 -19 -31 -39
-21 -42 20 -3 32 0 38 14 35 9 -1 22 -11 28 -20z"/>
<path d="M2595 3794 c-8 -63 0 -77 39 -72 33 4 39 22 9 26 -31 5 -29 22 2 22
16 0 25 6 25 15 0 8 -9 15 -20 15 -11 0 -20 7 -20 15 0 9 8 14 21 12 12 -1 24
4 26 11 3 8 -8 12 -35 12 l-40 0 -7 -56z"/>
<path d="M2165 3768 c-3 -29 -9 -61 -11 -70 -3 -11 0 -18 9 -18 8 0 17 9 20
20 3 14 14 20 31 20 14 0 26 -4 26 -10 0 -5 7 -10 15 -10 8 0 15 3 15 7 0 16
-73 113 -85 113 -8 0 -16 -20 -20 -52z m45 -14 c0 -8 -4 -14 -10 -14 -5 0 -10
9 -10 21 0 11 5 17 10 14 6 -3 10 -13 10 -21z"/>
<path d="M2797 3765 c-31 -64 -31 -65 -14 -65 7 0 21 15 30 33 l16 32 0 -42
c1 -36 4 -43 20 -43 11 0 22 9 26 19 3 11 12 24 20 31 11 9 12 4 8 -30 -4 -31
-2 -40 9 -40 14 0 28 55 28 111 0 32 -37 23 -57 -13 l-18 -33 -3 40 c-3 35
-15 54 -32 55 -3 0 -18 -25 -33 -55z"/>
<path d="M1935 3725 c-30 -29 -32 -58 -5 -85 35 -35 110 -18 110 26 0 20 -13
18 -33 -6 -20 -24 -31 -25 -51 -4 -31 30 -12 64 36 64 30 0 38 14 12 24 -28
11 -44 6 -69 -19z"/>
<path d="M3047 3675 c-32 -65 -32 -65 -11 -65 15 0 66 98 57 113 -9 16 -20 5
-46 -48z"/>
<path d="M3187 3612 c-38 -41 -4 -117 49 -110 35 4 34 22 -2 28 -38 7 -47 52
-13 71 20 10 25 8 50 -22 l28 -34 1 26 c0 53 -77 81 -113 41z"/>
<path d="M1728 3615 c-6 -6 16 -123 25 -131 3 -3 11 7 19 23 10 21 21 28 42
28 45 1 41 17 -14 53 -50 32 -62 37 -72 27z m51 -60 c-7 -7 -13 -5 -19 5 -15
24 -11 31 10 18 13 -9 16 -16 9 -23z"/>
<path d="M2380 3539 c-357 -39 -674 -269 -830 -602 -185 -395 -99 -867 216
-1181 140 -139 301 -227 509 -277 133 -32 334 -30 466 4 192 50 331 124 462
247 246 229 363 530 335 860 -30 365 -249 685 -579 848 -117 58 -222 88 -354
102 -101 11 -119 11 -225 -1z m148 -36 c-16 -2 -40 -2 -55 0 -16 2 -3 4 27 4
30 0 43 -2 28 -4z m-130 -10 c-10 -2 -26 -2 -35 0 -10 3 -2 5 17 5 19 0 27 -2
18 -5z m240 0 c-10 -2 -26 -2 -35 0 -10 3 -2 5 17 5 19 0 27 -2 18 -5z m-315
-10 c-7 -2 -19 -2 -25 0 -7 3 -2 5 12 5 14 0 19 -2 13 -5z m380 0 c-7 -2 -19
-2 -25 0 -7 3 -2 5 12 5 14 0 19 -2 13 -5z m-426 -9 c-3 -3 -12 -4 -19 -1 -8
3 -5 6 6 6 11 1 17 -2 13 -5z m470 0 c-3 -3 -12 -4 -19 -1 -8 3 -5 6 6 6 11 1
17 -2 13 -5z m-510 -10 c-3 -3 -12 -4 -19 -1 -8 3 -5 6 6 6 11 1 17 -2 13 -5z
m550 0 c-3 -3 -12 -4 -19 -1 -8 3 -5 6 6 6 11 1 17 -2 13 -5z m-79 -39 c233
-56 446 -203 578 -401 108 -162 156 -322 158 -524 2 -268 -94 -492 -291 -681
-530 -506 -1396 -255 -1575 457 -31 125 -31 342 1 459 44 163 137 323 254 438
145 141 334 236 532 267 79 12 264 4 343 -15z m152 15 c8 -5 11 -10 5 -10 -5
0 -17 5 -25 10 -8 5 -10 10 -5 10 6 0 17 -5 25 -10z m-740 -15 c-14 -8 -29
-14 -35 -14 -5 0 1 6 15 14 14 8 30 14 35 14 6 0 -1 -6 -15 -14z m790 -5 c8
-5 11 -10 5 -10 -5 0 -17 5 -25 10 -8 5 -10 10 -5 10 6 0 17 -5 25 -10z m165
-96 c26 -22 24 -22 -15 4 -25 16 -64 39 -87 51 -24 12 -43 24 -43 27 0 9 113
-55 145 -82z m-1050 58 c-18 -15 -85 -54 -85 -48 0 3 19 16 43 30 43 26 59 33
42 18z m-95 -56 c0 -2 -17 -16 -37 -31 l-38 -26 35 30 c34 31 40 35 40 27z
m1210 -51 c13 -14 21 -25 18 -25 -2 0 -15 11 -28 25 -13 14 -21 25 -18 25 2 0
15 -11 28 -25z m-1346 -67 c-33 -35 -74 -81 -93 -103 -29 -35 -30 -36 -10 -5
25 36 148 170 157 170 3 0 -21 -28 -54 -62z m1468 -50 c60 -72 40 -57 -27 20
-33 37 -49 58 -36 47 13 -11 41 -41 63 -67z m81 -107 c27 -46 14 -38 -18 12
-16 23 -22 37 -14 30 8 -6 22 -25 32 -42z m-1694 -28 c-12 -21 -27 -42 -32
-48 -11 -11 9 29 31 63 24 37 25 25 1 -15z m1731 -33 c6 -11 8 -20 6 -20 -3 0
-10 9 -16 20 -6 11 -8 20 -6 20 3 0 10 -9 16 -20z m49 -105 c0 -5 -6 1 -14 15
-8 14 -14 30 -14 35 0 6 6 -1 14 -15 8 -14 14 -29 14 -35z m-1853 -2 c-8 -15
-15 -25 -16 -21 0 12 23 58 27 54 3 -2 -2 -17 -11 -33z m1883 -83 c0 -8 -7 1
-14 20 -18 46 -17 64 0 25 8 -16 14 -37 14 -45z m-1934 -81 c-8 -35 -15 -77
-16 -94 -1 -25 -2 -26 -6 -7 -5 24 25 177 33 169 2 -2 -2 -33 -11 -68z m1952
9 c-3 -8 -6 -5 -6 6 -1 11 2 17 5 13 3 -3 4 -12 1 -19z m10 -60 c-3 -7 -5 -2
-5 12 0 14 2 19 5 13 2 -7 2 -19 0 -25z m10 -70 c-2 -13 -4 -5 -4 17 -1 22 1
32 4 23 2 -10 2 -28 0 -40z m-2000 -130 c-2 -24 -4 -7 -4 37 0 44 2 63 4 43 2
-21 2 -57 0 -80z m2010 0 c-2 -13 -4 -3 -4 22 0 25 2 35 4 23 2 -13 2 -33 0
-45z m-2000 -110 c-2 -13 -4 -5 -4 17 -1 22 1 32 4 23 2 -10 2 -28 0 -40z
m1990 5 c-3 -10 -5 -2 -5 17 0 19 2 27 5 18 2 -10 2 -26 0 -35z m-1980 -65
c-3 -7 -5 -2 -5 12 0 14 2 19 5 13 2 -7 2 -19 0 -25z m1970 0 c-3 -7 -5 -2 -5
12 0 14 2 19 5 13 2 -7 2 -19 0 -25z m-1949 -78 c0 -9 -3 -7 -8 5 -5 11 -8 29
-8 40 0 16 2 15 8 -5 4 -14 8 -32 8 -40z m1939 38 c-3 -8 -6 -5 -6 6 -1 11 2
17 5 13 3 -3 4 -12 1 -19z m-22 -78 c-9 -28 -19 -50 -21 -48 -2 2 4 27 13 56
9 28 19 50 21 47 2 -2 -4 -27 -13 -55z m-1869 -97 c-4 -4 -36 73 -35 85 0 4 9
-13 20 -37 11 -24 18 -46 15 -48z m1815 -32 c-17 -34 -33 -61 -36 -61 -3 0 10
29 27 65 18 35 34 63 36 61 2 -2 -11 -31 -27 -65z m-1797 3 c3 -8 2 -12 -4 -9
-6 3 -10 10 -10 16 0 14 7 11 14 -7z m45 -79 c13 -22 15 -31 6 -20 -18 22 -53
86 -38 70 6 -5 20 -28 32 -50z m1701 -14 c-5 -11 -15 -23 -21 -27 -6 -3 -3 5
6 20 20 30 30 35 15 7z m-1603 -116 c33 -38 86 -90 118 -115 91 -71 104 -84
50 -49 -56 37 -189 166 -225 219 -29 44 -18 33 57 -55z m1551 43 c-37 -53
-159 -171 -213 -207 -54 -35 -41 -22 50 49 32 25 85 77 118 117 66 78 83 93
45 41z m-1288 -264 c0 -2 -9 0 -20 6 -11 6 -20 13 -20 16 0 2 9 0 20 -6 11 -6
20 -13 20 -16z m1020 21 c0 -2 -13 -11 -30 -20 -38 -19 -40 -11 -2 9 31 17 32
18 32 11z m-900 -75 c8 -5 11 -10 5 -10 -5 0 -17 5 -25 10 -8 5 -10 10 -5 10
6 0 17 -5 25 -10z m107 -36 c-3 -3 -12 -4 -19 -1 -8 3 -5 6 6 6 11 1 17 -2 13
-5z m550 0 c-3 -3 -12 -4 -19 -1 -8 3 -5 6 6 6 11 1 17 -2 13 -5z m-510 -10
c-3 -3 -12 -4 -19 -1 -8 3 -5 6 6 6 11 1 17 -2 13 -5z m470 0 c-3 -3 -12 -4
-19 -1 -8 3 -5 6 6 6 11 1 17 -2 13 -5z m-424 -11 c-7 -2 -19 -2 -25 0 -7 3
-2 5 12 5 14 0 19 -2 13 -5z m380 0 c-7 -2 -19 -2 -25 0 -7 3 -2 5 12 5 14 0
19 -2 13 -5z m-315 -10 c-10 -2 -26 -2 -35 0 -10 3 -2 5 17 5 19 0 27 -2 18
-5z m255 0 c-7 -2 -21 -2 -30 0 -10 3 -4 5 12 5 17 0 24 -2 18 -5z m-115 -10
c-16 -2 -40 -2 -55 0 -16 2 -3 4 27 4 30 0 43 -2 28 -4z"/>
<path d="M2593 2668 l-233 -233 -98 98 c-53 53 -104 97 -112 97 -19 0 -160
-140 -160 -160 0 -23 351 -370 375 -370 26 0 645 617 645 643 0 11 -30 50 -67
88 -48 50 -73 69 -92 69 -21 0 -75 -49 -258 -232z m312 126 l48 -56 -294 -294
-294 -294 -160 160 -160 160 53 52 52 53 99 -99 c86 -85 102 -98 124 -92 15 3
117 100 249 236 122 126 226 229 229 230 3 0 27 -25 54 -56z"/>
<path d="M1306 3019 c-25 -39 -72 -197 -90 -298 -20 -119 -21 -321 -1 -435 26
-147 108 -376 135 -376 21 0 18 22 -16 104 -19 48 -47 130 -62 184 -24 90 -26
111 -26 302 1 219 12 289 75 458 17 45 20 65 12 73 -8 8 -15 5 -27 -12z"/>
<path d="M3665 3027 c-4 -8 10 -62 29 -121 53 -158 69 -271 63 -451 -7 -173
-28 -283 -83 -413 -40 -96 -45 -123 -26 -129 15 -6 59 88 95 202 79 253 76
533 -8 795 -35 108 -59 148 -70 117z"/>
<path d="M2032 1348 c-18 -18 -15 -35 13 -56 14 -11 25 -25 25 -31 0 -19 -29
-12 -40 9 -12 23 -30 27 -30 7 0 -42 81 -63 100 -27 9 17 6 25 -21 49 -22 21
-27 31 -18 36 7 5 17 1 24 -8 13 -18 35 -23 35 -9 0 15 -36 42 -56 42 -11 0
-25 -5 -32 -12z"/>
<path d="M2897 1342 c-29 -32 5 -71 54 -60 8 2 14 -4 14 -12 0 -11 -9 -14 -34
-12 -31 3 -33 2 -22 -12 29 -35 96 -9 89 35 -2 19 -10 25 -41 29 -38 5 -48 25
-12 25 33 0 32 20 -1 23 -20 2 -36 -3 -47 -16z"/>
<path d="M2190 1306 c0 -9 7 -16 15 -16 17 0 18 -10 6 -63 -6 -24 -5 -39 1
-43 14 -9 25 11 32 57 5 30 11 39 26 39 25 0 26 17 3 24 -61 17 -83 17 -83 2z"/>
<path d="M2782 1269 c3 -48 1 -54 -17 -54 -15 0 -22 10 -29 43 -5 26 -14 42
-24 42 -11 0 -13 -8 -7 -37 14 -78 60 -107 100 -63 14 16 16 27 9 66 -13 70
-37 71 -32 3z"/>
<path d="M2370 1231 c-16 -33 -30 -63 -30 -66 0 -11 31 -4 36 9 7 17 44 9 61
-13 6 -9 15 -13 19 -8 10 10 -28 129 -43 134 -7 3 -26 -23 -43 -56z m50 -12
c0 -5 -7 -9 -15 -9 -9 0 -12 6 -9 15 6 15 24 11 24 -6z"/>
<path d="M2537 1283 c-13 -12 -7 -23 12 -23 15 0 20 -10 25 -50 4 -31 12 -50
20 -50 10 0 12 13 8 49 -4 43 -2 49 17 54 11 3 21 10 21 16 0 12 -92 16 -103
4z"/>
</g>
</svg>
