<?xml version="1.0" standalone="no"?>
<!DOCTYPE svg PUBLIC "-//W3C//DTD SVG 20010904//EN"
 "http://www.w3.org/TR/2001/REC-SVG-20010904/DTD/svg10.dtd">
<svg version="1.0" xmlns="http://www.w3.org/2000/svg"
 width="500.000000pt" height="500.000000pt" viewBox="0 0 500.000000 500.000000"
 preserveAspectRatio="xMidYMid meet">

<g transform="translate(0.000000,500.000000) scale(0.100000,-0.100000)"
fill="#000000" stroke="none">
<path d="M0 2500 l0 -2500 2500 0 2500 0 0 2500 0 2500 -2500 0 -2500 0 0
-2500z m2455 90 c-3 -5 -13 -10 -21 -10 -19 0 -22 8 55 -129 l64 -114 58 114
c32 63 58 117 58 122 1 4 -10 7 -24 7 -14 0 -25 5 -25 10 0 6 28 10 65 10 37
0 65 -4 65 -10 0 -5 -10 -10 -23 -10 -19 0 -34 -21 -90 -129 l-67 -128 0 -112
0 -111 25 0 c14 0 25 -4 25 -10 0 -6 -43 -10 -110 -10 -67 0 -110 4 -110 10 0
6 11 10 25 10 25 0 25 0 25 97 l0 97 -81 143 c-60 105 -86 143 -100 143 -10 0
-19 5 -19 10 0 6 42 10 106 10 67 0 103 -4 99 -10z m348 -341 c28 -35 14 -67
-63 -141 -39 -36 -70 -69 -70 -72 0 -3 24 -6 53 -6 53 0 80 12 90 40 3 8 6 -4
6 -27 l1 -43 -95 0 c-52 0 -95 3 -95 7 0 3 32 39 70 79 66 68 70 75 70 118 0
53 -22 72 -71 61 -33 -8 -35 -12 -13 -36 19 -21 11 -39 -17 -39 -24 0 -36 27
-22 49 29 46 122 52 156 10z m194 20 c34 -13 43 -26 43 -62 0 -23 -16 -44 -77
-103 l-78 -74 56 0 c57 0 78 10 97 45 11 19 11 19 12 -5 0 -67 -4 -70 -101
-70 -108 0 -112 8 -34 75 31 26 62 60 70 75 30 58 13 110 -40 123 -19 4 -18 5
2 6 12 0 34 -4 50 -10z m-93 -13 c-18 -14 -18 -15 -1 -21 27 -11 22 -45 -8
-45 -46 0 -27 78 19 80 6 0 1 -6 -10 -14z"/>
<path d="M2320 2575 c0 -3 34 -65 75 -136 l75 -131 0 -104 0 -104 35 0 35 0 0
107 0 107 -76 133 c-74 130 -76 133 -110 133 -19 0 -34 -2 -34 -5z"/>
</g>
</svg>
